<svg width="261" height="261" viewBox="0 0 261 261" fill="none" xmlns="http://www.w3.org/2000/svg">
<g filter="url(#filter0_d_602_32)">
<rect x="40.724" y="36.4058" width="180" height="180" rx="32" fill="#1D1F23"/>
<rect x="41.224" y="36.9058" width="179" height="179" rx="31.5" stroke="black"/>
</g>
<path d="M170 115.925L159.494 77L120.263 87.4341L114.459 97.5972L102.702 97.5129L74 126.008L102.705 154.496L114.479 154.409L120.29 164.572L159.496 175L170 136.078L164.035 126.001L170 115.925ZM145.4 91.5777L128.205 121.193H93.7781L115.447 99.2341L145.4 91.5777ZM128.205 130.817L145.419 160.428L115.427 152.754L93.7566 130.824H128.184L128.205 130.817ZM136.612 126.008L153.826 96.3936L162.148 126.008L153.826 155.616L136.612 126.008Z" fill="white"/>
<defs>
<filter id="filter0_d_602_32" x="0.723999" y="0.405762" width="260" height="260" filterUnits="userSpaceOnUse" color-interpolation-filters="sRGB">
<feFlood flood-opacity="0" result="BackgroundImageFix"/>
<feColorMatrix in="SourceAlpha" type="matrix" values="0 0 0 0 0 0 0 0 0 0 0 0 0 0 0 0 0 0 127 0" result="hardAlpha"/>
<feOffset dy="4"/>
<feGaussianBlur stdDeviation="20"/>
<feComposite in2="hardAlpha" operator="out"/>
<feColorMatrix type="matrix" values="0 0 0 0 0.0367917 0 0 0 0 0.0348958 0 0 0 0 0.0484375 0 0 0 0.1 0"/>
<feBlend mode="normal" in2="BackgroundImageFix" result="effect1_dropShadow_602_32"/>
<feBlend mode="normal" in="SourceGraphic" in2="effect1_dropShadow_602_32" result="shape"/>
</filter>
</defs>
</svg>
